<?xml version="1.0" encoding="UTF-8" ?>
<!DOCTYPE svg PUBLIC "-//W3C//DTD SVG 1.1//EN" "http://www.w3.org/Graphics/SVG/1.1/DTD/svg11.dtd">
<svg width="1024pt" height="1024pt" viewBox="0 0 1024 1024" version="1.1" xmlns="http://www.w3.org/2000/svg">
<g id="#da3131ff">
<path fill="#da3131" opacity="1.00" d=" M 464.07 4.30 C 514.08 -0.59 564.87 2.20 613.97 12.96 C 640.73 18.00 666.92 25.81 692.35 35.51 C 700.64 38.59 708.74 42.19 717.10 45.12 C 719.50 45.70 720.74 48.22 723.16 48.79 C 737.80 53.90 751.15 61.90 764.66 69.35 C 782.08 79.66 799.41 90.23 815.50 102.54 C 845.15 124.42 872.04 149.91 896.30 177.62 C 919.61 204.38 940.24 233.51 957.39 264.60 C 959.73 269.05 961.86 273.60 963.76 278.26 C 964.45 278.37 965.83 278.60 966.51 278.71 C 966.24 280.30 966.06 281.90 965.70 283.48 C 965.00 284.74 965.37 285.23 966.83 284.95 C 967.50 284.92 968.83 284.87 969.50 284.84 C 968.06 289.64 971.80 293.19 973.77 297.11 C 998.93 352.56 1015.12 412.27 1019.60 473.07 C 1021.54 498.37 1021.39 523.81 1019.65 549.11 C 1017.93 568.16 1015.94 587.30 1011.69 605.97 C 1010.91 606.73 1010.62 607.64 1010.82 608.69 C 1010.83 609.21 1010.86 610.25 1010.87 610.77 C 1009.91 614.52 1009.06 618.30 1008.36 622.11 C 1008.19 622.60 1007.86 623.59 1007.69 624.08 C 1006.89 624.87 1006.60 625.79 1006.81 626.86 L 1007.10 629.17 L 1006.78 629.34 C 1006.56 629.45 1006.13 629.68 1005.91 629.79 C 1005.68 632.55 1005.09 635.27 1004.40 637.96 C 1004.28 638.36 1004.04 639.17 1003.92 639.58 C 1002.53 643.77 1001.23 648.00 1000.19 652.30 C 1000.11 652.57 999.94 653.11 999.86 653.37 C 998.86 655.89 998.30 658.54 998.09 661.23 C 997.90 663.02 997.73 664.82 997.53 666.63 C 997.21 666.57 996.58 666.47 996.26 666.42 C 995.73 666.36 994.66 666.23 994.13 666.17 C 993.81 667.36 993.99 668.48 994.68 669.54 C 995.01 671.66 994.82 673.82 994.84 675.97 L 993.49 675.73 C 993.11 675.77 992.37 675.86 992.00 675.90 L 991.91 676.69 L 991.71 678.00 C 991.05 678.84 990.76 679.80 990.86 680.87 L 990.72 682.04 C 990.01 682.84 989.70 683.77 989.81 684.84 C 989.82 688.11 987.85 690.90 986.76 693.88 C 986.53 694.36 986.08 695.32 985.86 695.80 L 985.72 697.10 C 985.50 697.59 985.06 698.55 984.84 699.03 C 984.29 700.75 983.56 702.40 982.72 704.00 C 982.51 704.49 982.09 705.47 981.88 705.96 L 981.83 706.99 C 981.54 707.43 980.94 708.30 980.65 708.74 C 979.06 713.81 976.89 718.65 974.77 723.51 L 973.42 724.05 C 972.11 725.87 971.83 728.15 971.24 730.27 C 970.35 733.70 968.33 736.68 966.88 739.88 C 965.60 742.30 964.60 744.97 962.67 746.96 C 961.07 748.05 960.15 749.73 959.98 751.65 C 958.84 755.48 956.54 758.85 954.64 762.34 L 954.55 762.49 L 954.46 762.64 C 953.11 764.87 951.84 767.14 950.57 769.41 C 950.54 769.45 950.49 769.52 950.47 769.56 L 949.62 770.62 C 948.64 771.05 948.08 771.79 947.94 772.83 C 946.91 776.39 944.29 779.18 942.63 782.45 C 942.61 782.49 942.55 782.58 942.52 782.63 C 937.48 790.74 932.07 798.61 926.62 806.46 C 926.59 806.50 926.54 806.58 926.51 806.62 C 917.30 819.87 907.11 832.41 896.64 844.67 C 894.26 846.94 892.40 849.78 889.74 851.74 C 888.57 852.22 887.74 853.20 887.48 854.44 C 883.91 860.05 878.30 864.03 873.87 868.94 C 868.59 874.64 863.15 880.20 857.12 885.12 C 855.10 886.62 853.21 888.29 851.50 890.12 C 850.13 891.45 848.74 892.76 847.21 893.89 C 844.71 895.52 842.57 897.59 840.56 899.77 C 835.52 904.46 830.06 908.66 824.59 912.81 L 823.87 912.85 C 822.77 912.89 822.06 913.48 821.73 914.63 C 821.26 915.03 820.33 915.84 819.86 916.24 C 817.76 917.65 815.74 919.18 813.87 920.88 C 812.07 922.49 810.11 924.04 807.80 924.86 C 806.75 925.09 805.99 925.70 805.53 926.69 C 802.63 929.12 799.52 931.87 795.87 932.93 C 794.77 933.03 794.02 933.60 793.59 934.64 C 790.72 937.24 787.40 939.83 783.66 940.95 C 782.66 941.12 781.68 941.36 780.72 941.67 C 780.55 942.08 780.19 942.90 780.02 943.30 L 779.56 944.48 C 779.02 944.54 777.94 944.68 777.39 944.74 C 776.16 944.76 774.62 945.43 774.57 946.84 L 773.96 947.18 C 771.77 948.32 769.66 949.63 767.68 951.10 C 766.60 951.90 765.40 952.52 764.21 953.11 C 761.23 954.42 758.54 956.25 755.74 957.87 L 754.61 958.50 C 754.55 958.53 754.45 958.58 754.40 958.60 L 752.73 959.36 C 749.38 960.93 746.00 962.45 742.68 964.09 C 742.67 964.27 742.63 964.65 742.62 964.84 C 742.59 965.29 742.54 966.21 742.52 966.66 C 742.03 966.58 741.05 966.42 740.56 966.34 C 739.37 966.14 738.18 965.96 737.00 965.78 C 735.92 968.65 733.13 969.83 730.50 970.91 L 730.25 971.00 C 727.98 971.67 725.74 972.46 723.65 973.58 L 722.92 973.93 C 718.09 976.27 713.05 978.17 707.96 979.86 C 707.78 980.33 707.41 981.28 707.22 981.76 L 705.95 981.98 C 705.45 982.18 704.46 982.57 703.97 982.76 C 703.53 982.89 702.64 983.14 702.19 983.27 C 698.79 984.07 695.40 984.93 692.04 985.86 C 691.78 986.33 691.27 987.25 691.02 987.72 L 689.56 988.16 C 686.86 988.93 684.21 989.89 681.59 990.90 L 680.92 990.97 C 680.43 991.16 679.44 991.55 678.94 991.75 L 677.62 992.20 C 674.95 993.05 672.31 993.98 669.68 994.94 L 668.94 994.97 C 668.45 995.18 667.47 995.59 666.98 995.79 C 666.57 995.93 665.73 996.21 665.32 996.35 C 661.59 997.29 657.78 997.82 654.07 998.76 C 653.81 999.03 653.29 999.56 653.04 999.82 C 650.34 1002.16 646.23 1002.88 642.72 1002.80 C 641.67 1002.61 640.77 1002.91 640.01 1003.69 C 635.75 1005.33 631.21 1006.80 626.62 1006.80 C 625.42 1006.50 624.57 1006.85 624.07 1007.86 C 623.49 1007.93 622.31 1008.06 621.73 1008.13 C 615.36 1009.31 609.02 1010.63 602.66 1011.87 L 601.86 1012.02 C 593.51 1013.48 585.11 1014.60 576.74 1015.88 C 576.37 1015.93 575.63 1016.04 575.26 1016.09 C 558.19 1018.00 541.06 1019.41 523.89 1019.92 C 520.57 1020.00 517.24 1020.07 513.92 1020.01 C 512.64 1019.91 511.37 1019.91 510.11 1020.01 C 506.76 1020.07 503.41 1019.99 500.07 1019.94 C 482.91 1019.54 465.79 1018.13 448.76 1016.05 L 448.13 1015.95 C 443.73 1015.16 439.30 1014.57 434.89 1013.90 C 433.50 1013.13 431.94 1012.47 430.35 1013.01 L 429.38 1013.06 C 419.91 1011.37 410.58 1009.03 401.12 1007.34 C 396.76 1006.55 392.43 1005.59 388.17 1004.38 C 385.81 1002.68 382.72 1003.34 380.09 1002.36 C 374.43 1000.55 368.94 997.70 362.80 998.21 C 362.21 998.06 361.01 997.76 360.41 997.61 C 360.68 996.86 361.20 995.36 361.46 994.61 C 359.18 994.69 356.91 994.84 354.64 995.05 C 353.09 995.12 351.05 995.55 350.71 993.40 L 351.80 993.49 C 351.72 992.96 351.56 991.92 351.48 991.40 C 349.69 991.53 347.90 991.69 346.11 991.83 C 344.63 991.90 343.14 991.94 341.66 991.95 C 341.73 991.25 341.87 989.85 341.94 989.15 C 335.03 987.76 328.42 985.30 321.73 983.17 L 321.25 983.01 C 317.96 981.78 315.24 979.40 311.87 978.37 C 308.07 977.09 304.38 975.51 300.70 973.94 L 300.21 973.71 C 290.55 968.97 280.84 964.30 271.34 959.24 L 270.71 958.90 C 265.92 956.52 261.47 953.54 256.70 951.15 L 256.45 951.01 C 254.32 949.67 252.16 948.40 249.99 947.13 L 249.80 947.02 C 245.55 944.17 241.27 941.34 236.70 939.03 C 234.45 937.81 232.08 936.62 230.41 934.63 C 229.96 933.59 229.20 933.02 228.12 932.92 C 224.72 931.88 221.49 929.52 219.09 926.90 C 218.52 925.78 217.47 925.05 216.24 924.89 C 215.71 924.48 214.66 923.67 214.13 923.27 C 213.93 922.83 213.54 921.96 213.34 921.53 C 212.82 921.40 211.77 921.13 211.24 921.00 L 210.18 920.76 C 207.79 918.58 205.37 916.33 202.30 915.15 C 200.19 913.95 198.47 912.21 196.55 910.76 L 196.43 910.65 L 196.30 910.55 C 194.58 909.15 192.91 907.69 191.28 906.19 C 189.38 904.39 187.38 902.70 185.24 901.19 C 183.95 900.03 181.91 899.49 181.27 897.77 C 180.97 896.70 180.28 896.04 179.21 895.79 C 176.57 894.52 174.77 892.01 172.57 890.13 C 170.23 887.62 167.73 885.26 164.97 883.22 C 155.40 875.12 147.09 865.68 138.32 856.75 C 138.29 856.71 138.22 856.63 138.19 856.59 C 137.90 856.09 137.32 855.11 137.03 854.61 C 136.59 853.24 135.73 852.01 134.35 851.51 C 134.04 851.34 133.44 851.02 133.14 850.85 L 133.03 849.70 C 133.17 848.14 131.89 846.82 130.34 846.91 L 129.54 846.81 L 129.15 846.23 C 127.87 844.04 126.04 842.27 124.11 840.68 C 122.32 839.04 120.69 837.25 118.94 835.59 L 119.08 834.71 C 118.87 834.23 118.45 833.26 118.25 832.78 C 117.03 831.59 115.34 830.53 115.04 828.76 C 114.89 828.24 114.60 827.20 114.46 826.68 C 114.02 826.50 113.13 826.12 112.69 825.93 C 111.27 825.20 110.43 823.76 109.42 822.61 C 109.39 822.58 109.34 822.51 109.32 822.48 C 105.92 817.62 101.54 813.32 99.12 807.86 C 98.94 806.79 98.34 806.04 97.34 805.60 C 94.07 802.47 92.13 798.23 89.45 794.61 C 89.42 794.57 89.37 794.49 89.34 794.44 C 87.35 790.87 84.14 787.84 83.06 783.85 C 82.92 782.77 82.34 782.00 81.32 781.57 C 79.11 778.95 77.10 775.99 76.01 772.74 C 75.78 771.11 75.23 769.27 73.41 768.85 C 72.28 767.10 71.15 765.34 70.24 763.48 C 69.22 760.78 68.06 758.09 66.14 755.91 C 62.84 751.93 61.08 747.02 58.59 742.57 C 58.57 742.53 58.52 742.45 58.50 742.40 C 57.20 739.81 56.03 737.15 54.61 734.63 C 54.59 734.58 54.54 734.50 54.52 734.46 L 53.57 732.56 C 53.55 732.52 53.51 732.44 53.49 732.39 C 49.82 723.55 45.16 715.06 42.08 706.02 C 41.87 705.54 41.43 704.57 41.21 704.08 C 40.34 702.48 39.63 700.80 39.13 699.06 C 38.92 698.57 38.50 697.59 38.29 697.09 C 36.90 693.04 34.81 689.14 34.07 684.90 C 33.86 684.42 33.43 683.45 33.21 682.96 C 30.54 675.77 27.69 668.50 26.05 661.03 C 25.84 660.54 25.42 659.56 25.21 659.07 C 23.96 655.41 22.53 651.67 22.17 647.82 C 22.27 646.76 21.97 645.82 21.29 645.00 C 13.21 618.39 8.71 590.75 5.53 563.14 C 2.17 529.15 2.09 494.80 5.61 460.82 C 7.71 443.65 10.08 426.50 13.35 409.50 C 16.94 391.78 21.68 374.31 27.16 357.08 C 30.90 345.34 35.31 333.82 39.13 322.10 C 39.55 320.78 40.58 319.78 41.31 318.65 C 41.35 318.58 41.43 318.45 41.47 318.38 C 44.81 309.02 48.81 299.91 53.05 290.93 C 54.45 288.14 56.41 285.70 58.04 283.05 C 57.91 281.62 57.79 280.18 57.68 278.75 C 58.29 278.66 59.52 278.46 60.14 278.36 C 62.79 272.08 65.61 265.84 69.18 260.02 C 87.67 228.22 108.67 197.72 133.75 170.73 C 155.12 147.73 177.90 125.92 202.83 106.78 C 220.38 93.26 239.12 81.31 258.32 70.28 C 258.92 69.47 259.45 68.62 259.90 67.72 C 261.58 67.63 263.51 68.17 264.97 67.05 C 277.85 58.05 292.48 52.13 306.65 45.53 C 312.70 42.71 319.04 40.61 325.33 38.41 C 326.12 37.60 326.86 36.62 328.04 36.37 C 341.41 32.10 354.52 27.06 367.97 23.04 C 399.40 14.12 431.51 7.35 464.07 4.30 M 378.18 32.15 C 343.36 42.80 308.90 55.46 277.08 73.33 C 275.41 76.99 278.14 80.81 279.77 84.03 C 299.82 118.41 319.65 152.92 339.62 187.35 C 345.42 197.51 351.77 207.41 356.21 218.28 C 372.33 211.24 388.32 203.81 404.96 198.03 C 427.72 190.70 451.07 184.93 474.88 182.35 C 524.31 176.66 574.96 182.57 621.85 199.14 C 637.67 204.37 652.59 211.81 667.90 218.28 C 670.30 212.18 673.34 206.35 676.68 200.71 C 692.28 174.53 707.19 147.93 722.55 121.60 C 730.69 105.25 742.91 90.88 748.23 73.19 C 736.66 67.97 725.39 62.12 713.82 56.89 C 695.70 48.78 677.00 42.06 658.08 36.10 C 645.34 32.17 632.59 27.68 619.20 26.64 C 618.99 26.09 618.56 24.98 618.34 24.43 C 601.74 23.35 585.64 18.61 569.05 17.41 C 505.28 9.81 440.07 15.07 378.18 32.15 M 493.56 192.87 C 450.36 195.40 407.67 206.80 369.05 226.36 C 344.72 238.88 321.64 254.00 301.17 272.19 C 275.92 294.52 254.38 320.96 237.29 350.00 C 224.15 372.61 213.12 396.62 206.19 421.88 C 199.62 441.61 196.37 462.31 194.46 482.96 C 190.29 532.16 197.56 582.32 215.71 628.25 C 226.44 655.67 241.42 681.31 259.20 704.74 C 299.46 757.39 356.62 796.77 419.99 816.10 C 454.50 826.81 490.95 830.71 527.00 829.23 C 561.77 827.61 596.47 820.88 628.76 807.69 C 710.59 774.91 778.95 707.71 809.55 624.63 C 813.23 614.59 817.17 604.60 819.64 594.18 C 821.63 586.07 824.11 578.06 825.48 569.81 C 832.88 528.80 832.44 486.40 824.31 445.53 C 820.78 431.91 817.57 418.18 812.52 405.03 C 805.74 386.39 797.78 368.12 787.70 351.02 C 751.11 288.05 692.21 238.55 624.18 212.72 C 582.68 197.04 537.83 190.35 493.56 192.87 M 75.23 273.60 C 70.22 283.25 65.04 292.83 60.72 302.82 C 54.47 317.08 48.18 331.37 43.13 346.11 C 37.26 363.57 31.69 381.14 27.40 399.06 C 9.06 480.35 10.77 566.27 33.59 646.49 C 43.98 680.77 56.75 714.49 74.18 745.85 C 74.77 746.63 75.35 748.77 76.67 747.69 C 124.17 720.75 171.45 693.40 218.58 665.82 C 214.67 654.65 208.79 644.30 204.74 633.18 C 176.74 563.31 174.19 483.78 196.53 411.99 C 202.33 392.76 210.80 374.52 219.14 356.31 C 171.06 328.93 123.53 300.57 75.23 273.60 M 892.00 306.18 C 862.92 322.67 834.09 339.61 805.09 356.25 C 807.65 364.45 812.17 371.82 815.42 379.74 C 841.02 438.25 848.46 504.33 837.67 567.21 C 832.82 595.01 824.62 622.25 813.12 648.03 C 810.44 653.68 807.56 659.28 805.56 665.23 C 806.02 665.62 806.94 666.39 807.40 666.77 C 847.09 690.58 887.56 713.07 927.48 736.51 C 934.29 740.43 941.04 744.51 948.28 747.64 C 955.34 738.51 959.05 727.46 964.26 717.29 C 969.04 706.58 973.28 695.65 977.66 684.78 C 981.89 674.81 984.47 664.26 988.17 654.10 C 990.32 648.56 991.30 642.67 993.03 637.00 C 1013.40 558.87 1014.49 475.80 996.20 397.16 C 993.71 388.40 991.24 379.59 990.42 370.48 C 989.75 370.47 988.42 370.46 987.75 370.45 C 987.59 365.58 986.91 360.70 984.76 356.28 C 979.52 341.46 973.90 326.78 967.58 312.39 C 962.01 299.17 955.18 286.54 948.91 273.64 C 929.59 283.86 910.92 295.24 892.00 306.18 M 634.07 818.46 C 625.16 821.80 616.18 824.97 607.10 827.83 C 571.19 838.66 533.41 843.18 495.96 841.35 C 459.05 839.62 422.55 831.32 388.22 817.72 C 377.65 813.36 367.62 807.67 356.58 804.49 C 339.74 835.72 320.92 865.83 303.76 896.88 C 293.72 913.96 283.75 931.08 274.11 948.39 C 281.36 950.90 288.21 954.38 294.85 958.18 C 313.60 966.62 332.37 975.22 351.98 981.49 C 363.30 984.94 374.33 989.43 385.94 991.88 C 426.63 1002.95 468.91 1007.68 511.03 1007.99 C 558.68 1008.10 606.42 1001.63 652.13 988.16 C 666.13 983.66 680.06 978.91 693.80 973.69 C 703.11 970.37 711.89 965.79 720.96 961.89 C 730.83 957.82 739.80 951.87 749.89 948.29 C 728.63 910.02 706.02 872.53 684.53 834.40 C 678.74 824.23 671.91 814.52 668.08 803.36 C 656.65 808.17 645.63 813.94 634.07 818.46 Z" />
</g>
<g id="#ffffffff">
<path fill="#ffffff" opacity="1.00" d=" M 378.18 32.15 C 440.07 15.07 505.28 9.81 569.05 17.41 C 585.64 18.61 601.74 23.35 618.34 24.43 C 618.56 24.98 618.99 26.09 619.20 26.64 C 632.59 27.68 645.34 32.17 658.08 36.10 C 677.00 42.06 695.70 48.78 713.82 56.89 C 725.39 62.12 736.66 67.97 748.23 73.19 C 742.91 90.88 730.69 105.25 722.55 121.60 C 707.19 147.93 692.28 174.53 676.68 200.71 C 673.34 206.35 670.30 212.18 667.90 218.28 C 652.59 211.81 637.67 204.37 621.85 199.14 C 574.96 182.57 524.31 176.66 474.88 182.35 C 451.07 184.93 427.72 190.70 404.96 198.03 C 388.32 203.81 372.33 211.24 356.21 218.28 C 351.77 207.41 345.42 197.51 339.62 187.35 C 319.65 152.92 299.82 118.41 279.77 84.03 C 278.14 80.81 275.41 76.99 277.08 73.33 C 308.90 55.46 343.36 42.80 378.18 32.15 Z" />
<path fill="#ffffff" opacity="1.00" d=" M 493.56 192.87 C 537.83 190.35 582.68 197.04 624.18 212.72 C 692.21 238.55 751.11 288.05 787.70 351.02 C 797.78 368.12 805.74 386.39 812.52 405.03 C 817.57 418.18 820.78 431.91 824.31 445.53 C 832.44 486.40 832.88 528.80 825.48 569.81 C 824.11 578.06 821.63 586.07 819.64 594.18 C 817.17 604.60 813.23 614.59 809.55 624.63 C 778.95 707.71 710.59 774.91 628.76 807.69 C 596.47 820.88 561.77 827.61 527.00 829.23 C 490.95 830.71 454.50 826.81 419.99 816.10 C 356.62 796.77 299.46 757.39 259.20 704.74 C 241.42 681.31 226.44 655.67 215.71 628.25 C 197.56 582.32 190.29 532.16 194.46 482.96 C 196.37 462.31 199.62 441.61 206.19 421.88 C 213.12 396.62 224.15 372.61 237.29 350.00 C 254.38 320.96 275.92 294.52 301.17 272.19 C 321.64 254.00 344.72 238.88 369.05 226.36 C 407.67 206.80 450.36 195.40 493.56 192.87 M 506.45 279.69 C 505.23 279.48 504.01 279.28 502.80 279.08 C 501.09 284.21 499.14 289.44 499.30 294.94 C 499.35 360.01 499.51 425.09 499.19 490.17 C 489.65 481.96 480.76 473.02 471.42 464.58 C 463.29 456.06 454.85 447.82 445.66 440.43 C 437.64 433.45 430.28 425.75 422.27 418.76 C 414.92 411.09 407.34 403.61 399.11 396.88 C 392.35 391.39 386.57 384.82 379.85 379.27 C 373.50 374.32 368.70 367.72 362.46 362.64 C 359.63 360.16 356.21 358.41 353.59 355.69 C 349.84 348.85 339.30 359.88 345.82 363.64 C 353.62 371.67 361.57 379.57 369.98 386.96 C 377.07 392.85 382.68 400.24 389.86 406.04 C 399.76 413.71 408.12 423.09 417.52 431.34 C 425.52 438.01 431.91 446.38 440.18 452.75 C 450.97 461.58 460.23 472.11 471.06 480.90 C 474.63 485.64 479.08 489.62 482.86 494.18 C 480.63 494.64 478.44 495.51 476.16 495.45 C 468.60 494.70 461.24 492.66 453.75 491.55 L 453.89 491.39 C 445.87 489.71 437.93 487.67 429.95 485.83 C 421.06 483.65 412.00 482.24 403.10 480.12 C 395.56 477.70 387.78 476.10 380.11 474.15 C 363.10 470.15 346.12 465.78 328.84 463.10 C 324.62 461.93 320.26 461.31 315.88 461.26 C 316.70 461.20 318.34 461.09 319.16 461.03 C 310.08 456.38 299.60 454.16 289.40 455.10 C 289.95 459.68 290.74 466.02 296.01 467.49 C 315.85 470.98 335.07 477.27 354.92 480.74 C 359.10 481.39 363.29 482.32 367.55 482.21 C 372.36 483.00 376.81 485.04 381.47 486.39 C 394.76 490.67 408.73 492.11 422.09 496.09 C 428.13 497.76 434.29 498.91 440.36 500.46 C 452.22 503.41 464.14 506.88 476.40 507.46 C 477.95 509.69 479.51 511.92 481.13 514.11 C 480.08 515.54 478.86 517.04 477.00 517.35 C 419.06 533.81 361.82 552.56 304.02 569.49 C 301.65 570.28 299.08 570.64 296.88 571.87 C 296.84 575.00 297.12 578.13 297.22 581.26 C 317.69 575.06 338.35 569.43 358.56 562.40 C 372.32 559.17 385.63 554.37 399.02 549.90 C 422.06 543.20 445.27 536.99 467.85 528.85 C 474.53 526.14 481.86 526.15 488.87 524.84 C 489.43 525.93 490.01 527.03 490.60 528.12 C 490.10 529.37 489.63 530.67 488.77 531.73 C 479.05 544.56 466.32 554.60 455.47 566.40 C 451.18 570.90 448.08 576.35 443.89 580.94 C 430.88 596.19 413.92 607.88 402.73 624.69 C 396.51 632.76 388.91 639.60 381.50 646.55 C 372.08 655.55 362.09 664.81 356.85 677.00 C 367.78 670.58 375.54 660.26 384.61 651.64 C 389.87 646.19 395.72 641.31 400.63 635.52 C 403.32 632.47 404.87 628.61 407.71 625.70 C 418.71 614.01 430.42 603.04 441.56 591.49 C 444.28 588.56 447.33 585.84 449.34 582.34 C 452.17 577.35 456.37 573.37 460.44 569.41 C 471.26 558.91 481.69 548.01 492.61 537.61 C 494.38 536.10 493.91 533.49 494.44 531.44 C 497.14 532.45 499.66 533.91 502.39 534.88 C 502.33 538.60 502.36 542.32 502.06 546.04 C 501.88 548.98 500.09 551.50 499.66 554.40 C 499.25 557.25 499.29 560.16 498.78 563.01 C 498.27 565.80 496.15 568.07 496.01 570.96 C 495.71 573.29 495.88 575.75 494.97 577.97 C 492.69 583.19 492.23 588.94 490.51 594.35 C 489.70 599.83 489.84 605.64 486.67 610.47 C 486.47 615.14 485.58 619.65 483.75 623.97 C 482.96 630.15 480.05 635.86 479.88 642.13 C 479.75 647.40 477.03 652.10 476.43 657.30 C 474.55 663.85 473.28 670.54 471.28 677.06 C 470.13 681.63 470.62 686.50 468.99 690.97 C 466.44 698.21 464.37 705.64 463.32 713.25 C 460.91 718.62 460.32 724.53 461.32 730.33 C 463.78 726.71 465.40 722.57 466.43 718.34 C 467.43 713.08 466.83 707.38 469.60 702.57 C 471.61 699.01 470.22 694.62 472.07 691.00 C 474.11 686.55 474.12 681.55 475.85 677.01 C 477.76 672.06 476.64 666.56 478.53 661.63 C 481.29 654.32 482.49 646.56 484.26 638.98 C 486.48 627.52 489.84 616.33 492.35 604.94 C 493.67 597.65 495.98 590.59 497.51 583.34 C 499.54 578.15 499.26 572.42 501.31 567.25 C 502.73 562.99 502.76 558.43 504.00 554.14 C 505.59 548.47 506.18 542.41 509.39 537.33 C 510.73 536.87 512.09 536.39 513.36 535.72 C 515.39 535.70 517.47 535.70 519.47 535.21 C 526.09 532.61 532.88 528.13 534.51 520.72 C 536.00 521.02 537.68 520.69 537.69 518.86 C 537.25 514.56 536.83 510.24 536.88 505.91 C 538.93 503.83 537.08 500.29 534.25 500.43 C 533.24 494.92 527.65 492.52 524.89 488.20 C 524.47 423.46 524.75 358.72 524.75 293.98 C 524.73 288.81 522.94 283.90 521.29 279.08 C 520.04 279.28 518.79 279.48 517.55 279.69 C 517.41 273.81 506.64 273.84 506.45 279.69 Z" />
<path fill="#ffffff" opacity="1.00" d=" M 75.23 273.60 C 123.53 300.57 171.06 328.93 219.14 356.31 C 210.80 374.52 202.33 392.76 196.53 411.99 C 174.19 483.78 176.74 563.31 204.74 633.18 C 208.79 644.30 214.67 654.65 218.58 665.82 C 171.45 693.40 124.17 720.75 76.67 747.69 C 75.35 748.77 74.77 746.63 74.18 745.85 C 56.75 714.49 43.98 680.77 33.59 646.49 C 10.77 566.27 9.06 480.35 27.40 399.06 C 31.69 381.14 37.26 363.57 43.13 346.11 C 48.18 331.37 54.47 317.08 60.72 302.82 C 65.04 292.83 70.22 283.25 75.23 273.60 Z" />
<path fill="#ffffff" opacity="1.00" d=" M 892.00 306.18 C 910.92 295.24 929.59 283.86 948.91 273.64 C 955.18 286.54 962.01 299.17 967.58 312.39 C 973.90 326.78 979.52 341.46 984.76 356.28 C 986.91 360.70 987.59 365.58 987.75 370.45 C 988.42 370.46 989.75 370.47 990.42 370.48 C 991.24 379.59 993.71 388.40 996.20 397.16 C 1014.49 475.80 1013.40 558.87 993.03 637.00 C 991.30 642.67 990.32 648.56 988.17 654.10 C 984.47 664.26 981.89 674.81 977.66 684.78 C 973.28 695.65 969.04 706.58 964.26 717.29 C 959.05 727.46 955.34 738.51 948.28 747.64 C 941.04 744.51 934.29 740.43 927.48 736.51 C 887.56 713.07 847.09 690.58 807.40 666.77 C 806.94 666.39 806.02 665.62 805.56 665.23 C 807.56 659.28 810.44 653.68 813.12 648.03 C 824.62 622.25 832.82 595.01 837.67 567.21 C 848.46 504.33 841.02 438.25 815.42 379.74 C 812.17 371.82 807.65 364.45 805.09 356.25 C 834.09 339.61 862.92 322.67 892.00 306.18 Z" />
<path fill="#ffffff" opacity="1.00" d=" M 634.07 818.46 C 645.63 813.94 656.65 808.17 668.08 803.36 C 671.91 814.52 678.74 824.23 684.53 834.40 C 706.02 872.53 728.63 910.02 749.89 948.29 C 739.80 951.87 730.83 957.82 720.96 961.89 C 711.89 965.79 703.11 970.37 693.80 973.69 C 680.06 978.91 666.13 983.66 652.13 988.16 C 606.42 1001.63 558.68 1008.10 511.03 1007.99 C 468.91 1007.68 426.63 1002.95 385.94 991.88 C 374.33 989.43 363.30 984.94 351.98 981.49 C 332.37 975.22 313.60 966.62 294.85 958.18 C 288.21 954.38 281.36 950.90 274.11 948.39 C 283.75 931.08 293.72 913.96 303.76 896.88 C 320.92 865.83 339.74 835.72 356.58 804.49 C 367.62 807.67 377.65 813.36 388.22 817.72 C 422.55 831.32 459.05 839.62 495.96 841.35 C 533.41 843.18 571.19 838.66 607.10 827.83 C 616.18 824.97 625.16 821.80 634.07 818.46 Z" />
<path fill="#ffffff" opacity="1.00" d=" M 346.11 991.83 C 347.90 991.69 349.69 991.53 351.48 991.40 C 351.56 991.92 351.72 992.96 351.80 993.49 L 350.71 993.40 C 349.00 993.38 347.30 993.21 346.11 991.83 Z" />
</g>
<g id="#7b2929ff">
<path fill="#7b2929" opacity="1.00" d=" M 506.45 279.69 C 506.64 273.84 517.41 273.81 517.55 279.69 C 513.88 280.42 510.11 280.41 506.45 279.69 Z" />
<path fill="#7b2929" opacity="1.00" d=" M 289.40 455.10 C 299.60 454.16 310.08 456.38 319.16 461.03 C 318.34 461.09 316.70 461.20 315.88 461.26 C 313.06 461.11 310.30 460.49 307.55 459.85 C 303.29 458.56 298.65 458.36 294.40 459.81 C 293.55 460.12 292.72 460.49 291.94 460.94 C 294.32 463.47 297.54 464.92 300.65 466.35 C 312.28 471.46 325.13 472.32 337.26 475.74 C 347.22 478.53 357.65 479.24 367.55 482.21 C 363.29 482.32 359.10 481.39 354.92 480.74 C 335.07 477.27 315.85 470.98 296.01 467.49 C 290.74 466.02 289.95 459.68 289.40 455.10 Z" />
<path fill="#7b2929" opacity="1.00" d=" M 471.06 480.90 C 478.06 486.10 484.26 492.40 489.94 499.00 C 485.82 498.73 481.70 499.00 477.60 499.24 C 469.15 497.98 461.41 494.07 453.04 492.41 C 453.22 492.19 453.57 491.77 453.75 491.55 C 461.24 492.66 468.60 494.70 476.16 495.45 C 478.44 495.51 480.63 494.64 482.86 494.18 C 479.08 489.62 474.63 485.64 471.06 480.90 Z" />
<path fill="#7b2929" opacity="1.00" d=" M 476.40 507.46 C 477.05 507.32 478.35 507.02 479.01 506.88 C 479.59 508.13 480.61 508.49 482.08 507.98 C 482.88 508.01 484.48 508.09 485.29 508.13 C 483.85 510.08 482.54 512.13 481.13 514.11 C 479.51 511.92 477.95 509.69 476.40 507.46 Z" />
</g>
<g id="#000000ff">
<path fill="#000000" opacity="1.00" d=" M 502.80 279.08 C 504.01 279.28 505.23 279.48 506.45 279.69 C 510.11 280.41 513.88 280.42 517.55 279.69 C 518.79 279.48 520.04 279.28 521.29 279.08 C 522.94 283.90 524.73 288.81 524.75 293.98 C 524.75 358.72 524.47 423.46 524.89 488.20 C 527.65 492.52 533.24 494.92 534.25 500.43 C 537.08 500.29 538.93 503.83 536.88 505.91 C 536.83 510.24 537.25 514.56 537.69 518.86 C 537.68 520.69 536.00 521.02 534.51 520.72 C 532.88 528.13 526.09 532.61 519.47 535.21 C 517.47 535.70 515.39 535.70 513.36 535.72 L 512.13 535.70 C 505.88 534.70 499.67 532.45 494.89 528.19 C 489.21 523.19 486.10 515.65 486.02 508.14 C 487.83 505.56 489.35 502.80 490.64 499.94 L 489.94 499.00 C 484.26 492.40 478.06 486.10 471.06 480.90 C 460.23 472.11 450.97 461.58 440.18 452.75 C 431.91 446.38 425.52 438.01 417.52 431.34 C 408.12 423.09 399.76 413.71 389.86 406.04 C 382.68 400.24 377.07 392.85 369.98 386.96 C 361.57 379.57 353.62 371.67 345.82 363.64 C 348.62 361.20 351.22 358.55 353.59 355.69 C 356.21 358.41 359.63 360.16 362.46 362.64 C 368.70 367.72 373.50 374.32 379.85 379.27 C 386.57 384.82 392.35 391.39 399.11 396.88 C 407.34 403.61 414.92 411.09 422.27 418.76 C 430.28 425.75 437.64 433.45 445.66 440.43 C 454.85 447.82 463.29 456.06 471.42 464.58 C 480.76 473.02 489.65 481.96 499.19 490.17 C 499.51 425.09 499.35 360.01 499.30 294.94 C 499.14 289.44 501.09 284.21 502.80 279.08 M 507.45 492.50 C 497.76 494.76 491.07 505.31 493.51 515.03 C 494.99 522.91 502.09 529.40 510.07 530.07 C 518.94 530.99 527.48 524.69 530.42 516.51 C 532.60 509.73 530.45 501.71 525.02 497.05 C 520.30 492.95 513.59 491.01 507.45 492.50 Z" />
</g>
<g id="#cf9191dc">
<path fill="#cf9191" opacity="0.86" d=" M 966.83 284.95 C 965.37 285.23 965.00 284.74 965.70 283.48 L 966.63 283.95 L 966.83 284.95 Z" />
</g>
<g id="#8e55559b">
<path fill="#8e5555" opacity="0.61" d=" M 41.31 318.65 C 41.35 318.58 41.43 318.45 41.47 318.38 C 41.43 318.45 41.35 318.58 41.31 318.65 Z" />
</g>
<g id="#333333ff">
<path fill="#333333" opacity="1.00" d=" M 345.82 363.64 C 339.30 359.88 349.84 348.85 353.59 355.69 C 351.22 358.55 348.62 361.20 345.82 363.64 Z" />
<path fill="#333333" opacity="1.00" d=" M 291.94 460.94 C 292.72 460.49 293.55 460.12 294.40 459.81 C 298.78 459.83 303.17 459.89 307.55 459.85 C 310.30 460.49 313.06 461.11 315.88 461.26 C 320.26 461.31 324.62 461.93 328.84 463.10 C 339.67 466.34 350.84 468.32 361.78 471.17 C 375.54 474.19 389.18 477.86 403.10 480.12 C 412.00 482.24 421.06 483.65 429.95 485.83 C 437.93 487.67 445.87 489.71 453.89 491.39 L 453.75 491.55 C 453.57 491.77 453.22 492.19 453.04 492.41 C 461.41 494.07 469.15 497.98 477.60 499.24 C 481.88 500.16 486.28 500.32 490.64 499.94 C 489.35 502.80 487.83 505.56 486.02 508.14 L 485.29 508.13 C 484.48 508.09 482.88 508.01 482.08 507.98 C 481.31 506.81 480.28 506.44 479.01 506.88 C 478.35 507.02 477.05 507.32 476.40 507.46 C 464.14 506.88 452.22 503.41 440.36 500.46 C 434.29 498.91 428.13 497.76 422.09 496.09 C 408.73 492.11 394.76 490.67 381.47 486.39 C 376.81 485.04 372.36 483.00 367.55 482.21 C 357.65 479.24 347.22 478.53 337.26 475.74 C 325.13 472.32 312.28 471.46 300.65 466.35 C 297.54 464.92 294.32 463.47 291.94 460.94 Z" />
</g>
<g id="#635454ff">
<path fill="#635454" opacity="1.00" d=" M 294.40 459.81 C 298.65 458.36 303.29 458.56 307.55 459.85 C 303.17 459.89 298.78 459.83 294.40 459.81 Z" />
</g>
<g id="#896565ff">
<path fill="#896565" opacity="1.00" d=" M 328.84 463.10 C 346.12 465.78 363.10 470.15 380.11 474.15 C 387.78 476.10 395.56 477.70 403.10 480.12 C 389.18 477.86 375.54 474.19 361.78 471.17 C 350.84 468.32 339.67 466.34 328.84 463.10 Z" />
</g>
<g id="#fdfdfdff">
<path fill="#fdfdfd" opacity="1.00" d=" M 507.45 492.50 C 513.59 491.01 520.30 492.95 525.02 497.05 C 530.45 501.71 532.60 509.73 530.42 516.51 C 527.48 524.69 518.94 530.99 510.07 530.07 C 502.09 529.40 494.99 522.91 493.51 515.03 C 491.07 505.31 497.76 494.76 507.45 492.50 Z" />
<path fill="#fdfdfd" opacity="1.00" d=" M 994.13 666.17 C 994.66 666.23 995.73 666.36 996.26 666.42 C 996.09 667.07 995.74 668.36 995.57 669.01 L 994.68 669.54 C 993.99 668.48 993.81 667.36 994.13 666.17 Z" />
<path fill="#fdfdfd" opacity="1.00" d=" M 992.00 675.90 C 992.37 675.86 993.11 675.77 993.49 675.73 C 993.29 676.06 992.89 676.73 992.69 677.06 L 991.91 676.69 L 992.00 675.90 Z" />
<path fill="#fdfdfd" opacity="1.00" d=" M 202.30 915.15 C 205.37 916.33 207.79 918.58 210.18 920.76 C 207.02 919.76 205.45 916.31 202.30 915.15 Z" />
<path fill="#fdfdfd" opacity="1.00" d=" M 249.99 947.13 C 252.16 948.40 254.32 949.67 256.45 951.01 C 253.96 950.35 251.71 949.04 249.99 947.13 Z" />
<path fill="#fdfdfd" opacity="1.00" d=" M 271.34 959.24 C 280.84 964.30 290.55 968.97 300.21 973.71 C 296.14 973.56 293.12 970.60 289.54 969.06 C 284.12 966.54 278.90 963.61 273.44 961.20 C 272.73 960.52 272.03 959.90 271.34 959.24 Z" />
<path fill="#fdfdfd" opacity="1.00" d=" M 742.68 964.09 C 746.00 962.45 749.38 960.93 752.73 959.36 C 751.99 959.96 751.22 960.53 750.51 961.17 C 747.82 962.26 745.37 963.87 742.62 964.84 C 742.63 964.65 742.67 964.27 742.68 964.09 Z" />
<path fill="#fdfdfd" opacity="1.00" d=" M 730.50 970.91 C 733.13 969.83 735.92 968.65 737.00 965.78 C 738.18 965.96 739.37 966.14 740.56 966.34 C 736.96 967.33 734.15 970.06 730.50 970.91 Z" />
<path fill="#fdfdfd" opacity="1.00" d=" M 300.70 973.94 C 304.38 975.51 308.07 977.09 311.87 978.37 C 315.24 979.40 317.96 981.78 321.25 983.01 C 318.49 982.82 316.31 981.04 313.89 979.93 C 311.59 978.72 308.96 978.33 306.69 977.06 C 304.80 975.81 302.51 975.31 300.70 973.94 Z" />
<path fill="#fdfdfd" opacity="1.00" d=" M 707.96 979.86 C 713.05 978.17 718.09 976.27 722.92 973.93 L 722.92 974.53 C 719.06 975.53 715.96 978.46 711.97 978.93 C 710.33 979.78 708.69 980.63 707.22 981.76 C 707.41 981.28 707.78 980.33 707.96 979.86 Z" />
<path fill="#fdfdfd" opacity="1.00" d=" M 321.73 983.17 C 328.42 985.30 335.03 987.76 341.94 989.15 C 341.87 989.85 341.73 991.25 341.66 991.95 C 341.66 991.63 341.65 991.01 341.64 990.69 C 336.07 989.46 331.18 986.24 325.54 985.13 C 324.28 984.46 322.97 983.85 321.73 983.17 Z" />
<path fill="#fdfdfd" opacity="1.00" d=" M 692.04 985.86 C 695.40 984.93 698.79 984.07 702.19 983.27 C 700.94 983.90 699.67 984.48 698.45 985.14 C 695.87 985.61 693.29 986.40 691.02 987.72 C 691.27 987.25 691.78 986.33 692.04 985.86 Z" />
<path fill="#fdfdfd" opacity="1.00" d=" M 354.64 995.05 C 356.91 994.84 359.18 994.69 361.46 994.61 C 361.20 995.36 360.68 996.86 360.41 997.61 C 358.88 995.90 356.64 995.82 354.64 995.05 Z" />
<path fill="#fdfdfd" opacity="1.00" d=" M 654.07 998.76 C 657.78 997.82 661.59 997.29 665.32 996.35 C 662.73 998.25 658.78 997.55 656.44 999.71 C 655.30 999.74 654.16 999.78 653.04 999.82 C 653.29 999.56 653.81 999.03 654.07 998.76 Z" />
<path fill="#fdfdfd" opacity="1.00" d=" M 362.80 998.21 C 368.94 997.70 374.43 1000.55 380.09 1002.36 C 382.72 1003.34 385.81 1002.68 388.17 1004.38 C 392.43 1005.59 396.76 1006.55 401.12 1007.34 C 410.58 1009.03 419.91 1011.37 429.38 1013.06 C 427.45 1013.12 425.53 1013.14 423.62 1013.20 C 423.20 1012.87 422.37 1012.20 421.95 1011.87 C 419.70 1011.50 416.91 1012.44 415.21 1010.51 C 413.43 1010.44 411.66 1010.42 409.89 1010.38 C 408.60 1008.14 405.58 1009.50 403.48 1009.20 C 403.17 1008.88 402.55 1008.24 402.24 1007.92 C 393.57 1007.17 385.41 1003.51 376.82 1002.31 C 375.85 1000.91 374.01 1001.46 372.70 1000.76 C 371.22 999.60 369.35 999.77 367.60 999.64 C 366.26 998.46 364.40 998.66 362.80 998.21 Z" />
<path fill="#fdfdfd" opacity="1.00" d=" M 576.74 1015.88 C 585.11 1014.60 593.51 1013.48 601.86 1012.02 C 601.54 1012.31 600.91 1012.88 600.60 1013.16 C 598.43 1013.22 596.14 1012.79 594.08 1013.60 C 591.21 1015.04 587.88 1014.01 584.91 1015.04 C 582.29 1015.99 579.47 1015.80 576.74 1015.88 Z" />
<path fill="#fdfdfd" opacity="1.00" d=" M 430.35 1013.01 C 431.94 1012.47 433.50 1013.13 434.89 1013.90 C 433.56 1014.15 432.23 1014.34 430.90 1014.46 C 430.76 1014.10 430.49 1013.37 430.35 1013.01 Z" />
<path fill="#fdfdfd" opacity="1.00" d=" M 448.76 1016.05 C 465.79 1018.13 482.91 1019.54 500.07 1019.94 C 492.33 1019.87 484.58 1019.85 476.86 1019.54 C 470.41 1017.71 463.58 1019.14 457.13 1017.28 C 454.48 1016.38 450.71 1018.45 448.76 1016.05 Z" />
<path fill="#fdfdfd" opacity="1.00" d=" M 523.89 1019.92 C 541.06 1019.41 558.19 1018.00 575.26 1016.09 C 574.75 1016.88 574.05 1017.22 573.14 1017.11 C 570.39 1017.16 567.62 1016.95 564.92 1017.58 C 559.04 1019.24 552.74 1017.56 546.91 1019.58 C 539.24 1019.75 531.57 1019.89 523.89 1019.92 Z" />
</g>
<g id="#6c5a5aff">
<path fill="#6c5a5a" opacity="1.00" d=" M 477.60 499.24 C 481.70 499.00 485.82 498.73 489.94 499.00 L 490.64 499.94 C 486.28 500.32 481.88 500.16 477.60 499.24 Z" />
</g>
<g id="#725151ff">
<path fill="#725151" opacity="1.00" d=" M 479.01 506.88 C 480.28 506.44 481.31 506.81 482.08 507.98 C 480.61 508.49 479.59 508.13 479.01 506.88 Z" />
</g>
<g id="#666666ff">
<path fill="#666666" opacity="1.00" d=" M 485.29 508.13 L 486.02 508.14 C 486.10 515.65 489.21 523.19 494.89 528.19 C 499.67 532.45 505.88 534.70 512.13 535.70 C 508.87 535.81 505.50 536.09 502.39 534.88 C 499.66 533.91 497.14 532.45 494.44 531.44 C 493.74 531.42 493.05 531.45 492.37 531.48 C 491.77 530.35 491.18 529.24 490.60 528.12 C 490.01 527.03 489.43 525.93 488.87 524.84 C 481.86 526.15 474.53 526.14 467.85 528.85 C 445.27 536.99 422.06 543.20 399.02 549.90 C 385.63 554.37 372.32 559.17 358.56 562.40 C 338.35 569.43 317.69 575.06 297.22 581.26 C 297.12 578.13 296.84 575.00 296.88 571.87 C 299.08 570.64 301.65 570.28 304.02 569.49 C 361.82 552.56 419.06 533.81 477.00 517.35 C 478.86 517.04 480.08 515.54 481.13 514.11 C 482.54 512.13 483.85 510.08 485.29 508.13 Z" />
</g>
<g id="#999999ff">
<path fill="#999999" opacity="1.00" d=" M 490.60 528.12 C 491.18 529.24 491.77 530.35 492.37 531.48 C 493.05 531.45 493.74 531.42 494.44 531.44 C 493.91 533.49 494.38 536.10 492.61 537.61 C 481.69 548.01 471.26 558.91 460.44 569.41 C 456.37 573.37 452.17 577.35 449.34 582.34 C 447.33 585.84 444.28 588.56 441.56 591.49 C 430.42 603.04 418.71 614.01 407.71 625.70 C 404.87 628.61 403.32 632.47 400.63 635.52 C 395.72 641.31 389.87 646.19 384.61 651.64 C 375.54 660.26 367.78 670.58 356.85 677.00 C 362.09 664.81 372.08 655.55 381.50 646.55 C 388.91 639.60 396.51 632.76 402.73 624.69 C 413.92 607.88 430.88 596.19 443.89 580.94 C 448.08 576.35 451.18 570.90 455.47 566.40 C 466.32 554.60 479.05 544.56 488.77 531.73 C 489.63 530.67 490.10 529.37 490.60 528.12 Z" />
<path fill="#999999" opacity="1.00" d=" M 1008.36 622.11 C 1009.06 618.30 1009.91 614.52 1010.87 610.77 C 1010.25 614.57 1009.71 618.50 1008.36 622.11 Z" />
<path fill="#999999" opacity="1.00" d=" M 681.59 990.90 C 684.21 989.89 686.86 988.93 689.56 988.16 C 689.30 988.44 688.78 989.01 688.53 989.30 C 687.89 989.37 686.61 989.51 685.97 989.58 C 684.66 990.47 683.15 990.87 681.59 990.90 Z" />
<path fill="#999999" opacity="1.00" d=" M 669.68 994.94 C 672.31 993.98 674.95 993.05 677.62 992.20 C 677.34 992.44 676.79 992.91 676.51 993.14 C 674.23 993.74 672.02 994.63 669.68 994.94 Z" />
</g>
<g id="#ccccccff">
<path fill="#cccccc" opacity="1.00" d=" M 502.39 534.88 C 505.50 536.09 508.87 535.81 512.13 535.70 L 513.36 535.72 C 512.09 536.39 510.73 536.87 509.39 537.33 C 506.18 542.41 505.59 548.47 504.00 554.14 C 502.76 558.43 502.73 562.99 501.31 567.25 C 499.26 572.42 499.54 578.15 497.51 583.34 C 495.98 590.59 493.67 597.65 492.35 604.94 C 489.84 616.33 486.48 627.52 484.26 638.98 C 482.49 646.56 481.29 654.32 478.53 661.63 C 476.64 666.56 477.76 672.06 475.85 677.01 C 474.12 681.55 474.11 686.55 472.07 691.00 C 470.22 694.62 471.61 699.01 469.60 702.57 C 466.83 707.38 467.43 713.08 466.43 718.34 C 465.40 722.57 463.78 726.71 461.32 730.33 C 460.32 724.53 460.91 718.62 463.32 713.25 C 464.37 705.64 466.44 698.21 468.99 690.97 C 470.62 686.50 470.13 681.63 471.28 677.06 C 473.28 670.54 474.55 663.85 476.43 657.30 C 477.03 652.10 479.75 647.40 479.88 642.13 C 480.05 635.86 482.96 630.15 483.75 623.97 C 485.58 619.65 486.47 615.14 486.67 610.47 C 489.84 605.64 489.70 599.83 490.51 594.35 C 492.23 588.94 492.69 583.19 494.97 577.97 C 495.88 575.75 495.71 573.29 496.01 570.96 C 496.15 568.07 498.27 565.80 498.78 563.01 C 499.29 560.16 499.25 557.25 499.66 554.40 C 500.09 551.50 501.88 548.98 502.06 546.04 C 502.36 542.32 502.33 538.60 502.39 534.88 Z" />
<path fill="#cccccc" opacity="1.00" d=" M 1005.91 629.79 C 1006.13 629.68 1006.56 629.45 1006.78 629.34 C 1005.97 632.20 1005.52 635.19 1004.40 637.96 C 1005.09 635.27 1005.68 632.55 1005.91 629.79 Z" />
<path fill="#cccccc" opacity="1.00" d=" M 1000.19 652.30 C 1001.23 648.00 1002.53 643.77 1003.92 639.58 C 1002.94 643.81 1002.64 648.63 1000.19 652.30 Z" />
<path fill="#cccccc" opacity="1.00" d=" M 998.09 661.23 C 998.30 658.54 998.86 655.89 999.86 653.37 C 1000.20 656.14 998.79 658.63 998.09 661.23 Z" />
<path fill="#cccccc" opacity="1.00" d=" M 971.24 730.27 C 971.83 728.15 972.11 725.87 973.42 724.05 C 973.88 726.45 972.42 728.36 971.24 730.27 Z" />
<path fill="#cccccc" opacity="1.00" d=" M 66.14 755.91 C 68.06 758.09 69.22 760.78 70.24 763.48 C 68.90 761.97 68.30 760.03 67.43 758.26 C 67.11 757.67 66.46 756.50 66.14 755.91 Z" />
<path fill="#cccccc" opacity="1.00" d=" M 112.69 825.93 C 113.13 826.12 114.02 826.50 114.46 826.68 C 114.60 827.20 114.89 828.24 115.04 828.76 C 113.65 829.42 111.56 827.21 112.69 825.93 Z" />
<path fill="#cccccc" opacity="1.00" d=" M 134.35 851.51 C 135.73 852.01 136.59 853.24 137.03 854.61 C 135.55 855.39 133.39 852.85 134.35 851.51 Z" />
<path fill="#cccccc" opacity="1.00" d=" M 138.19 856.59 C 138.22 856.63 138.29 856.71 138.32 856.75 C 138.29 856.71 138.22 856.63 138.19 856.59 Z" />
<path fill="#cccccc" opacity="1.00" d=" M 164.97 883.22 C 167.73 885.26 170.23 887.62 172.57 890.13 C 169.50 888.54 167.40 885.61 164.97 883.22 Z" />
<path fill="#cccccc" opacity="1.00" d=" M 851.50 890.12 C 853.21 888.29 855.10 886.62 857.12 885.12 C 855.43 886.97 853.80 889.02 851.50 890.12 Z" />
<path fill="#cccccc" opacity="1.00" d=" M 185.24 901.19 C 187.38 902.70 189.38 904.39 191.28 906.19 C 188.84 905.09 187.21 902.90 185.24 901.19 Z" />
<path fill="#cccccc" opacity="1.00" d=" M 813.87 920.88 C 815.74 919.18 817.76 917.65 819.86 916.24 C 818.88 918.87 816.08 919.60 813.87 920.88 Z" />
<path fill="#cccccc" opacity="1.00" d=" M 211.24 921.00 C 211.77 921.13 212.82 921.40 213.34 921.53 C 213.54 921.96 213.93 922.83 214.13 923.27 C 212.86 924.37 210.58 922.40 211.24 921.00 Z" />
<path fill="#cccccc" opacity="1.00" d=" M 236.70 939.03 C 241.27 941.34 245.55 944.17 249.80 947.02 C 247.77 946.67 246.43 944.96 244.65 944.09 C 241.93 942.54 238.98 941.20 236.70 939.03 Z" />
<path fill="#cccccc" opacity="1.00" d=" M 780.72 941.67 C 781.68 941.36 782.66 941.12 783.66 940.95 C 784.19 942.64 781.37 944.06 780.02 943.30 C 780.19 942.90 780.55 942.08 780.72 941.67 Z" />
<path fill="#cccccc" opacity="1.00" d=" M 774.57 946.84 C 774.62 945.43 776.16 944.76 777.39 944.74 C 777.94 946.04 775.69 947.39 774.57 946.84 Z" />
<path fill="#cccccc" opacity="1.00" d=" M 767.68 951.10 C 769.66 949.63 771.77 948.32 773.96 947.18 C 772.34 949.15 770.06 950.32 767.68 951.10 Z" />
<path fill="#cccccc" opacity="1.00" d=" M 256.70 951.15 C 261.47 953.54 265.92 956.52 270.71 958.90 C 268.97 958.30 267.18 957.88 265.42 957.38 C 262.89 954.80 259.47 953.42 256.70 951.15 Z" />
<path fill="#cccccc" opacity="1.00" d=" M 755.74 957.87 C 758.54 956.25 761.23 954.42 764.21 953.11 C 761.32 954.72 759.34 957.97 755.74 957.87 Z" />
<path fill="#cccccc" opacity="1.00" d=" M 723.65 973.58 C 725.74 972.46 727.98 971.67 730.25 971.00 C 729.68 971.37 728.56 972.11 727.99 972.48 C 726.88 973.74 725.10 973.31 723.65 973.58 Z" />
<path fill="#cccccc" opacity="1.00" d=" M 602.66 1011.87 C 609.02 1010.63 615.36 1009.31 621.73 1008.13 C 621.46 1008.40 620.92 1008.92 620.65 1009.18 C 618.74 1009.18 616.78 1009.05 615.00 1009.87 C 612.57 1010.95 609.64 1010.13 607.40 1011.71 C 605.82 1011.81 604.23 1011.86 602.66 1011.87 Z" />
<path fill="#cccccc" opacity="1.00" d=" M 430.90 1014.46 C 432.23 1014.34 433.56 1014.15 434.89 1013.90 C 439.30 1014.57 443.73 1015.16 448.13 1015.95 C 445.59 1015.88 443.05 1015.82 440.51 1015.70 C 437.70 1013.60 434.06 1015.19 430.90 1014.46 Z" />
</g>
<g id="#a05353b1">
<path fill="#a05353" opacity="0.69" d=" M 1010.82 608.69 C 1010.62 607.64 1010.91 606.73 1011.69 605.97 C 1012.72 607.47 1012.43 608.37 1010.82 608.69 Z" />
</g>
<g id="#b76868c9">
<path fill="#b76868" opacity="0.79" d=" M 1006.81 626.86 C 1006.60 625.79 1006.89 624.87 1007.69 624.08 C 1008.68 625.59 1008.39 626.52 1006.81 626.86 Z" />
</g>
<g id="#a15050b3">
<path fill="#a15050" opacity="0.70" d=" M 21.29 645.00 C 21.97 645.82 22.27 646.76 22.17 647.82 C 20.53 647.50 20.24 646.56 21.29 645.00 Z" />
</g>
<g id="#aa5656bd">
<path fill="#aa5656" opacity="0.74" d=" M 25.21 659.07 C 25.42 659.56 25.84 660.54 26.05 661.03 L 25.17 660.88 L 24.74 659.88 L 25.21 659.07 Z" />
</g>
<g id="#c99292d6">
<path fill="#c99292" opacity="0.84" d=" M 990.86 680.87 C 990.76 679.80 991.05 678.84 991.71 678.00 C 992.76 679.58 992.48 680.54 990.86 680.87 Z" />
</g>
<g id="#9d6868aa">
<path fill="#9d6868" opacity="0.67" d=" M 989.81 684.84 C 989.70 683.77 990.01 682.84 990.72 682.04 C 991.75 683.59 991.44 684.52 989.81 684.84 Z" />
</g>
<g id="#a15e5eb0">
<path fill="#a15e5e" opacity="0.69" d=" M 33.21 682.96 C 33.43 683.45 33.86 684.42 34.07 684.90 L 33.18 684.77 L 32.74 683.78 L 33.21 682.96 Z" />
</g>
<g id="#8556568f">
<path fill="#855656" opacity="0.56" d=" M 985.86 695.80 C 986.08 695.32 986.53 694.36 986.76 693.88 L 987.23 694.71 L 986.75 695.70 L 985.86 695.80 Z" />
</g>
<g id="#7249497c">
<path fill="#724949" opacity="0.49" d=" M 38.29 697.09 C 38.50 697.59 38.92 698.57 39.13 699.06 L 38.24 698.91 L 37.81 697.90 L 38.29 697.09 Z" />
</g>
<g id="#644d4d69">
<path fill="#644d4d" opacity="0.41" d=" M 984.84 699.03 C 985.06 698.55 985.50 697.59 985.72 697.10 L 986.20 697.90 L 985.75 698.89 L 984.84 699.03 Z" />
</g>
<g id="#b16868c2">
<path fill="#b16868" opacity="0.76" d=" M 41.21 704.08 C 41.43 704.57 41.87 705.54 42.08 706.02 L 41.20 705.90 L 40.74 704.91 L 41.21 704.08 Z" />
</g>
<g id="#a47e7ead">
<path fill="#a47e7e" opacity="0.68" d=" M 981.88 705.96 C 982.09 705.47 982.51 704.49 982.72 704.00 L 983.21 704.82 L 982.77 705.83 L 981.88 705.96 Z" />
</g>
<g id="#4b40404d">
<path fill="#4b4040" opacity="0.30" d=" M 980.65 708.74 C 980.94 708.30 981.54 707.43 981.83 706.99 L 982.19 707.83 L 981.58 708.73 L 980.65 708.74 Z" />
</g>
<g id="#6d4e4e74">
<path fill="#6d4e4e" opacity="0.45" d=" M 53.49 732.39 C 53.51 732.44 53.55 732.52 53.57 732.56 C 53.55 732.52 53.51 732.44 53.49 732.39 Z" />
</g>
<g id="#7a5a5a82">
<path fill="#7a5a5a" opacity="0.51" d=" M 54.52 734.46 C 54.54 734.50 54.59 734.58 54.61 734.63 C 54.59 734.58 54.54 734.50 54.52 734.46 Z" />
<path fill="#7a5a5a" opacity="0.51" d=" M 58.50 742.40 C 58.52 742.45 58.57 742.53 58.59 742.57 C 58.57 742.53 58.52 742.45 58.50 742.40 Z" />
</g>
<g id="#a24c4cb5">
<path fill="#a24c4c" opacity="0.71" d=" M 959.98 751.65 C 960.15 749.73 961.07 748.05 962.67 746.96 C 963.30 748.55 961.99 752.00 959.98 751.65 Z" />
</g>
<g id="#b77e7ec4">
<path fill="#b77e7e" opacity="0.77" d=" M 954.55 762.49 L 954.64 762.34 C 954.59 762.41 954.50 762.57 954.46 762.64 L 954.55 762.49 Z" />
</g>
<g id="#b05252c5">
<path fill="#b05252" opacity="0.77" d=" M 73.41 768.85 C 75.23 769.27 75.78 771.11 76.01 772.74 C 74.22 773.30 73.01 770.26 73.41 768.85 Z" />
</g>
<g id="#8a5e5e94">
<path fill="#8a5e5e" opacity="0.58" d=" M 950.47 769.56 C 950.49 769.52 950.54 769.45 950.57 769.41 C 950.54 769.45 950.49 769.52 950.47 769.56 Z" />
</g>
<g id="#b05858c4">
<path fill="#b05858" opacity="0.77" d=" M 947.94 772.83 C 948.08 771.79 948.64 771.05 949.62 770.62 C 950.20 772.27 949.64 773.01 947.94 772.83 Z" />
</g>
<g id="#bc5c5cd2">
<path fill="#bc5c5c" opacity="0.82" d=" M 81.32 781.57 C 82.34 782.00 82.92 782.77 83.06 783.85 C 81.41 783.98 80.82 783.22 81.32 781.57 Z" />
</g>
<g id="#b46e6ec4">
<path fill="#b46e6e" opacity="0.77" d=" M 942.52 782.63 C 942.55 782.58 942.61 782.49 942.63 782.45 C 942.61 782.49 942.55 782.58 942.52 782.63 Z" />
</g>
<g id="#b36969c4">
<path fill="#b36969" opacity="0.77" d=" M 89.34 794.44 C 89.37 794.49 89.42 794.57 89.45 794.61 C 89.42 794.57 89.37 794.49 89.34 794.44 Z" />
</g>
<g id="#b85555ce">
<path fill="#b85555" opacity="0.81" d=" M 97.34 805.60 C 98.34 806.04 98.94 806.79 99.12 807.86 C 97.43 808.01 96.84 807.26 97.34 805.60 Z" />
</g>
<g id="#a66969b4">
<path fill="#a66969" opacity="0.71" d=" M 926.51 806.62 C 926.54 806.58 926.59 806.50 926.62 806.46 C 926.59 806.50 926.54 806.58 926.51 806.62 Z" />
</g>
<g id="#a15a5ab1">
<path fill="#a15a5a" opacity="0.69" d=" M 109.32 822.48 C 109.34 822.51 109.39 822.58 109.42 822.61 C 109.39 822.58 109.34 822.51 109.32 822.48 Z" />
</g>
<g id="#a07070aa">
<path fill="#a07070" opacity="0.67" d=" M 118.25 832.78 C 118.45 833.26 118.87 834.23 119.08 834.71 L 118.21 834.56 C 118.22 834.11 118.24 833.22 118.25 832.78 Z" />
</g>
<g id="#974343aa">
<path fill="#974343" opacity="0.67" d=" M 124.11 840.68 C 126.04 842.27 127.87 844.04 129.15 846.23 C 127.15 844.72 124.94 843.15 124.11 840.68 Z" />
</g>
<g id="#c04242db">
<path fill="#c04242" opacity="0.86" d=" M 130.34 846.91 C 131.89 846.82 133.17 848.14 133.03 849.70 C 131.75 850.25 129.82 848.16 130.34 846.91 Z" />
</g>
<g id="#a44f4fb7">
<path fill="#a44f4f" opacity="0.72" d=" M 887.48 854.44 C 887.74 853.20 888.57 852.22 889.74 851.74 C 890.69 852.94 888.84 855.23 887.48 854.44 Z" />
</g>
<g id="#984343aa">
<path fill="#984343" opacity="0.67" d=" M 840.56 899.77 C 842.57 897.59 844.71 895.52 847.21 893.89 C 845.32 896.14 843.51 898.86 840.56 899.77 Z" />
</g>
<g id="#a75a5ab8">
<path fill="#a75a5a" opacity="0.72" d=" M 179.21 895.79 C 180.28 896.04 180.97 896.70 181.27 897.77 C 179.62 898.11 178.93 897.45 179.21 895.79 Z" />
</g>
<g id="#c37575d4">
<path fill="#c37575" opacity="0.83" d=" M 196.30 910.55 L 196.43 910.65 L 196.55 910.76 C 196.49 910.71 196.36 910.60 196.30 910.55 Z" />
</g>
<g id="#ae5050c2">
<path fill="#ae5050" opacity="0.76" d=" M 821.73 914.63 C 822.06 913.48 822.77 912.89 823.87 912.85 C 824.04 914.46 823.33 915.05 821.73 914.63 Z" />
</g>
<g id="#b56464c7">
<path fill="#b56464" opacity="0.78" d=" M 216.24 924.89 C 217.47 925.05 218.52 925.78 219.09 926.90 C 217.95 927.97 215.50 926.30 216.24 924.89 Z" />
</g>
<g id="#a85f5fb8">
<path fill="#a85f5f" opacity="0.72" d=" M 805.53 926.69 C 805.99 925.70 806.75 925.09 807.80 924.86 C 807.99 926.53 807.23 927.14 805.53 926.69 Z" />
</g>
<g id="#b45656c9">
<path fill="#b45656" opacity="0.79" d=" M 228.12 932.92 C 229.20 933.02 229.96 933.59 230.41 934.63 C 228.76 935.14 228.00 934.57 228.12 932.92 Z" />
</g>
<g id="#b65454cc">
<path fill="#b65454" opacity="0.80" d=" M 793.59 934.64 C 794.02 933.60 794.77 933.03 795.87 932.93 C 795.98 934.58 795.22 935.14 793.59 934.64 Z" />
</g>
<g id="#ae7979ba">
<path fill="#ae7979" opacity="0.73" d=" M 754.40 958.60 C 754.45 958.58 754.55 958.53 754.61 958.50 C 754.55 958.53 754.45 958.58 754.40 958.60 Z" />
</g>
<g id="#ac6464bc">
<path fill="#ac6464" opacity="0.74" d=" M 703.97 982.76 C 704.46 982.57 705.45 982.18 705.95 981.98 L 705.78 982.87 L 704.76 983.27 L 703.97 982.76 Z" />
</g>
<g id="#bb7a7aca">
<path fill="#bb7a7a" opacity="0.79" d=" M 678.94 991.75 C 679.44 991.55 680.43 991.16 680.92 990.97 L 680.76 991.85 L 679.75 992.26 L 678.94 991.75 Z" />
</g>
<g id="#bf7c7cce">
<path fill="#bf7c7c" opacity="0.81" d=" M 666.98 995.79 C 667.47 995.59 668.45 995.18 668.94 994.97 L 668.79 995.86 L 667.79 996.28 L 666.98 995.79 Z" />
</g>
<g id="#ab5757bf">
<path fill="#ab5757" opacity="0.75" d=" M 640.01 1003.69 C 640.77 1002.91 641.67 1002.61 642.72 1002.80 C 642.45 1004.41 641.55 1004.70 640.01 1003.69 Z" />
</g>
<g id="#a07272ab">
<path fill="#a07272" opacity="0.67" d=" M 624.07 1007.86 C 624.57 1006.85 625.42 1006.50 626.62 1006.80 C 626.42 1008.30 625.57 1008.66 624.07 1007.86 Z" />
</g>
<g id="#f1f1f1f1">
<path fill="#f1f1f1" opacity="0.95" d=" M 510.11 1020.01 C 511.37 1019.91 512.64 1019.91 513.92 1020.01 C 514.12 1021.68 509.84 1021.69 510.11 1020.01 Z" />
</g>
</svg>
